# xmcd
#
# Track frame offsets:
#	150
#	17790
#	32544
#	49936
#	64513
#	79008
#	93105
#	109273
#	125257
#	141968
#	159632
#	173835
#	187391
#
# Disc length: 2737 seconds
# Revision: 0
# Processed by: cddbd v1.5.2PL0 Copyright (c) Steve Scherf et al.
# Submitted via: dBpowerAMP V12.0
#
DISCID=ab0aaf0d
DTITLE=Rebekah Long - Here I Am
DYEAR=2016
DGENRE=Country
TTITLE0=Ain't Life Sweet
TTITLE1=The Fightin' Side of Me
TTITLE2=Hairpin Hattie
TTITLE3=Here I Am
TTITLE4=The Maple Tree and Me
TTITLE5=Unmitigated Gall
TTITLE6=He's Never Coming Back
TTITLE7=Somebody's Knockin'
TTITLE8=I Know This Town
TTITLE9=Nellie Mae
TTITLE10=I Washed My Face In the Morning Dew
TTITLE11=Sweet Miss Dixie Deen
TTITLE12=December
EXTD=
EXTT0=
EXTT1=
EXTT2=
EXTT3=
EXTT4=
EXTT5=
EXTT6=
EXTT7=
EXTT8=
EXTT9=
EXTT10=
EXTT11=
EXTT12=
PLAYORDER=
